{
    "patcher": {
        "fileversion": 1,
        "appversion": {
            "major": 9,
            "minor": 1,
            "revision": 2,
            "architecture": "x64",
            "modernui": 1
        },
        "classnamespace": "box",
        "rect": [ 174.0, 200.0, 849.0, 480.0 ],
        "boxes": [
            {
                "box": {
                    "id": "obj-24",
                    "maxclass": "message",
                    "numinlets": 2,
                    "numoutlets": 1,
                    "outlettype": [ "" ],
                    "patching_rect": [ 105.0, 60.0, 29.5, 22.0 ],
                    "text": "1"
                }
            },
            {
                "box": {
                    "id": "obj-48",
                    "maxclass": "newobj",
                    "numinlets": 2,
                    "numoutlets": 1,
                    "outlettype": [ "int" ],
                    "patching_rect": [ 105.0, 90.0, 33.0, 22.0 ],
                    "text": "== 1"
                }
            },
            {
                "box": {
                    "color": [ 0.7, 0.4, 0.3, 1.0 ],
                    "id": "obj-49",
                    "maxclass": "newobj",
                    "numinlets": 1,
                    "numoutlets": 1,
                    "outlettype": [ "" ],
                    "patching_rect": [ 105.0, 150.0, 87.0, 22.0 ],
                    "text": "test.assert test"
                }
            },
            {
                "box": {
                    "id": "obj-50",
                    "maxclass": "toggle",
                    "numinlets": 1,
                    "numoutlets": 1,
                    "outlettype": [ "int" ],
                    "parameter_enable": 0,
                    "parameter_mappable": 0,
                    "patching_rect": [ 105.0, 120.0, 24.0, 24.0 ]
                }
            },
            {
                "box": {
                    "color": [ 0.7, 0.4, 0.3, 1.0 ],
                    "id": "obj-9",
                    "maxclass": "newobj",
                    "numinlets": 1,
                    "numoutlets": 0,
                    "patching_rect": [ 15.0, 60.0, 81.0, 22.0 ],
                    "text": "test.terminate"
                }
            },
            {
                "box": {
                    "id": "obj-8",
                    "maxclass": "newobj",
                    "numinlets": 1,
                    "numoutlets": 1,
                    "outlettype": [ "bang" ],
                    "patching_rect": [ 15.0, 15.0, 58.0, 22.0 ],
                    "text": "loadbang"
                }
            }
        ],
        "lines": [
            {
                "patchline": {
                    "destination": [ "obj-48", 0 ],
                    "source": [ "obj-24", 0 ]
                }
            },
            {
                "patchline": {
                    "destination": [ "obj-50", 0 ],
                    "source": [ "obj-48", 0 ]
                }
            },
            {
                "patchline": {
                    "destination": [ "obj-49", 0 ],
                    "source": [ "obj-50", 0 ]
                }
            },
            {
                "patchline": {
                    "destination": [ "obj-24", 0 ],
                    "order": 0,
                    "source": [ "obj-8", 0 ]
                }
            },
            {
                "patchline": {
                    "destination": [ "obj-9", 0 ],
                    "order": 1,
                    "source": [ "obj-8", 0 ]
                }
            }
        ],
        "autosave": 0
    }
}